<svg preserveAspectRatio="none" overflow="visible" style="display: block;" width="32.7633" height="35.6662" viewBox="0 0 32.7633 35.6662" fill="none" xmlns="http://www.w3.org/2000/svg">
<g id="Group">
<path id="Vector" d="M15.7553 33.2126C15.5332 33.2126 15.3003 33.1911 15.0437 33.1479C13.2585 32.8439 11.4301 32.5614 9.66213 32.2876L8.74147 32.1454C6.2253 31.7551 4.11017 30.1681 3.08603 27.8999C2.09422 25.7029 2.28612 23.1651 3.60134 21.1082C6.66084 16.3238 9.87127 11.5395 12.8984 7.05051C14.4681 4.72192 16.8333 3.35705 19.7397 3.10479C21.5314 2.94955 23.2973 2.80944 25.1666 2.66283C25.9838 2.59814 26.8139 2.53348 27.6612 2.46448C27.7281 2.46017 27.7928 2.45585 27.8574 2.45585C28.7328 2.45585 29.5478 2.92372 29.9877 3.69129C30.4599 4.51708 30.4124 5.54121 29.8648 6.31956L29.4206 6.94913C29.1446 7.33938 28.8945 7.69522 28.6466 8.05528C23.5301 15.483 20.2895 22.8655 18.7436 30.6275C18.3641 32.5291 16.9497 33.2061 15.7531 33.2061L15.7553 33.2126Z" fill="#FAA819"/>
<path id="Vector_2" d="M27.8575 4.91376C27.3939 5.57352 27.0058 6.11904 26.6263 6.66885C21.6889 13.8357 18.0472 21.574 16.3374 30.1553C16.2469 30.6059 16.083 30.7589 15.7553 30.7589C15.6669 30.7589 15.5677 30.7481 15.4556 30.7287C13.3469 30.3686 11.2296 30.0474 9.11666 29.7218C5.62162 29.1807 3.76738 25.4096 5.67122 22.4364C8.6876 17.721 11.8053 13.0703 14.936 8.42826C16.1132 6.68182 17.8467 5.73954 19.9532 5.55627C22.5254 5.33419 25.0998 5.13799 27.8596 4.91807M27.8596 0.00431641C27.7281 0.00431641 27.5966 0.00869598 27.4651 0.0194765C26.622 0.0863155 25.7962 0.153083 24.9812 0.21561C23.1033 0.364381 21.3288 0.50454 19.5263 0.659779C15.9084 0.972413 12.8316 2.75556 10.8609 5.67923C7.82515 10.1833 4.60396 14.9827 1.53152 19.7865C-0.232169 22.5442 -0.488756 25.9552 0.845869 28.9112C2.21284 31.9384 5.02223 34.0535 8.36202 34.5709L9.28052 34.7132C11.0399 34.9848 12.8618 35.2651 14.6277 35.567C15.0222 35.6338 15.3909 35.6662 15.7531 35.6662C18.4375 35.6662 20.6065 33.8357 21.1499 31.1103C22.6311 23.6826 25.7445 16.5977 30.6669 9.45019C30.9062 9.10306 31.1498 8.75812 31.4323 8.35709C31.5724 8.15873 31.719 7.95177 31.8721 7.73184C32.9653 6.17514 33.0601 4.12466 32.1158 2.47309C31.2361 0.935793 29.6061 0 27.8553 0L27.8596 0.00431641Z" fill="white"/>
</g>
</svg>
