<svg preserveAspectRatio="none" overflow="visible" style="display: block;" width="32" height="41" viewBox="0 0 32 41" fill="none" xmlns="http://www.w3.org/2000/svg">
<path id="Vector" d="M29.3333 15.375H26.6667V10.25C26.6667 4.58944 21.8907 0 16 0C10.1093 0 5.33333 4.58944 5.33333 10.25V15.375H2.66667C1.19267 15.375 0 16.5211 0 17.9375V38.4375C0 39.8539 1.19267 41 2.66667 41H29.3333C30.8073 41 32 39.8539 32 38.4375V17.9375C32 16.5211 30.8073 15.375 29.3333 15.375ZM16 30.75C14.526 30.75 13.3333 29.6039 13.3333 28.1875C13.3333 26.7711 14.526 25.625 16 25.625C17.474 25.625 18.6667 26.7711 18.6667 28.1875C18.6667 29.6039 17.474 30.75 16 30.75ZM21.3333 15.375H10.6667V10.25C10.6667 7.41972 13.0547 5.125 16 5.125C18.9453 5.125 21.3333 7.41972 21.3333 10.25V15.375Z" fill="#9DA1A6"/>
</svg>
