<svg preserveAspectRatio="none" overflow="visible" style="display: block;" width="22.8002" height="22.8081" viewBox="0 0 22.8002 22.8081" fill="none" xmlns="http://www.w3.org/2000/svg">
<g id="Group">
<path id="Vector" d="M7.57904 20.9879C6.04006 20.9879 4.59218 20.3887 3.50387 19.3004C1.25693 17.0535 1.25693 13.397 3.50387 11.1501L11.146 3.50788C12.2343 2.41957 13.6822 1.8202 15.2212 1.8202C16.7601 1.8202 18.208 2.41957 19.2963 3.50788C20.3846 4.59619 20.9839 6.04407 20.9839 7.58305C20.9839 9.12202 20.3846 10.5699 19.2963 11.6582L11.6542 19.3004C10.5659 20.3887 9.11801 20.9879 7.57904 20.9879Z" fill="#00A66A"/>
<path id="Vector_2" d="M15.2211 3.63897C16.2296 3.63897 17.2395 4.02403 18.0098 4.79431C19.5504 6.33489 19.5504 8.83119 18.0098 10.3718L10.3677 18.0138C9.59742 18.7841 8.58902 19.1693 7.57902 19.1693C6.56902 19.1693 5.5606 18.7841 4.79032 18.0138C3.24974 16.4732 3.24974 13.9771 4.79032 12.4365L12.4325 4.79431C13.2028 4.02403 14.2111 3.63897 15.2211 3.63897ZM15.2211 0C13.1963 0 11.2914 0.789526 9.8595 2.22143L2.21737 9.86346C-0.739123 12.82 -0.739123 17.6303 2.21737 20.5868C3.64927 22.0187 5.55422 22.8081 7.57902 22.8081C9.60382 22.8081 11.5087 22.0187 12.9406 20.5868L20.5828 12.9446C23.5393 9.98816 23.5393 5.17792 20.5828 2.22143C19.1509 0.789526 17.2459 0 15.2211 0Z" fill="white"/>
</g>
</svg>
