<svg preserveAspectRatio="none" overflow="visible" style="display: block;" width="20" height="20" viewBox="0 0 20 20" fill="none" xmlns="http://www.w3.org/2000/svg">
<g id="back_svgrepo.com" clip-path="url(#clip0_0_20)">
<path id="Vector" d="M4.35404 11.3304L10.2399 17.7466C10.7155 18.3073 10.6466 19.1475 10.0859 19.6231C9.5252 20.0988 8.68504 20.0299 8.20938 19.4692L0.382344 10.9368C0.269794 10.8237 0.178591 10.6912 0.113125 10.5457C0.0317145 10.3649 -0.00817367 10.1681 -0.00361328 9.96979L-0.00359375 9.96856C0.000938185 9.77071 0.049406 9.57634 0.138301 9.39953C0.146945 9.38241 0.155958 9.36548 0.165332 9.34875C0.21958 9.25169 0.285873 9.16187 0.362637 9.08143L8.39777 0.412363C8.89762 -0.126914 9.73998 -0.158867 10.2792 0.340957C10.8185 0.840781 10.8505 1.68316 10.3506 2.22242L4.37672 8.66766H18.6435C19.3788 8.66766 19.9749 9.26373 19.9749 9.99902C19.9749 10.7343 19.3788 11.3304 18.6435 11.3304H4.35404V11.3304Z" fill="black" fill-opacity="0.5"/>
</g>
<defs>
<clipPath id="clip0_0_20">
<rect width="20" height="20" fill="white"/>
</clipPath>
</defs>
</svg>
